<?xml version="1.0" encoding="UTF-8" standalone="no"?>
<!DOCTYPE svg PUBLIC "-//W3C//DTD SVG 1.1//EN" "http://www.w3.org/Graphics/SVG/1.1/DTD/svg11.dtd">
<svg width="100%" height="100%" viewBox="0 0 1920 1080" version="1.1" xmlns="http://www.w3.org/2000/svg" xmlns:xlink="http://www.w3.org/1999/xlink" xml:space="preserve" xmlns:serif="http://www.serif.com/" style="fill-rule:evenodd;clip-rule:evenodd;stroke-linejoin:round;stroke-miterlimit:2;">
    <g transform="matrix(1,0,0,1,-434,0)">
        <rect x="434" y="-0" width="1920" height="1080" style="fill:rgb(0,11,27);"/>
    </g>
    <g id="Artboard1" transform="matrix(3.473332,0,0,1.808769,70.82694,479.216317)">
        <path d="M175.2,51.923C174.411,48.639 173.106,46.997 171.287,46.997C170.124,46.997 168.894,47.391 167.594,48.179C163.629,59.47 160.45,68.267 158.057,74.569C155.663,80.871 152.826,87.764 149.544,95.247C143.254,109.558 137.545,116.714 132.417,116.714C130.366,116.714 129.34,115.27 129.34,112.381C129.34,106.342 133.101,96.199 140.622,81.954C148.143,67.709 155.493,56.647 162.672,48.769C163.316,46.885 163.939,45.062 164.542,43.302C167.485,34.71 169.936,27.605 171.895,21.987C172.218,21.06 172.528,20.173 172.825,19.327C173.556,17.24 174.348,15.034 175.2,12.709C176.63,8.808 178.23,4.571 180,0C180.725,-1.872 181.479,-3.799 182.26,-5.783C186.089,-15.499 189.542,-23.377 192.619,-29.416C197.2,-38.213 201.097,-42.611 204.31,-42.611C205.61,-42.611 206.259,-41.889 206.259,-40.445C206.259,-39.526 206.054,-38.869 205.644,-38.475C204.686,-37.425 203.934,-36.637 203.387,-36.112C197.918,-29.153 192.038,-17.731 185.747,-1.844C185.514,-1.245 185.276,-0.63 185.034,0C181.08,10.266 175.882,24.553 169.441,42.861C170.74,42.073 172.022,41.68 173.286,41.68C174.551,41.68 175.679,42.205 176.671,43.255C177.662,44.305 178.363,45.815 178.773,47.785C179.457,51.067 179.799,54.94 179.799,59.404L178.466,86.188C178.466,93.541 179.799,97.217 182.465,97.217C184.312,97.217 186.944,94.131 190.362,87.961C193.781,81.79 197.507,73.65 201.541,63.54C199.49,64.196 197.576,64.525 195.798,64.525C193.883,64.525 192.183,64.153 190.7,63.409C188.741,62.427 187.159,60.797 185.952,58.518C183.833,54.514 182.773,48.868 182.773,41.581C182.773,34.294 184.021,25.662 186.517,15.683C187.759,10.717 189.153,5.914 190.7,1.273C192.261,-3.411 193.978,-7.93 195.849,-12.282C199.576,-20.948 203.866,-28.267 208.72,-34.241C213.575,-40.215 218.122,-43.202 222.361,-43.202C227.01,-43.202 229.335,-38.475 229.335,-29.022C229.335,-21.681 228.16,-12.519 225.809,-1.536C225.133,1.624 224.36,4.935 223.489,8.397C222.409,12.691 221.255,16.976 220.027,21.25C218.038,28.176 215.856,35.076 213.481,41.949C212.034,46.136 210.516,50.313 208.926,54.481C212.007,52.153 215.201,49.144 218.506,45.454C219.674,44.149 220.857,42.76 222.053,41.286C223.014,40.102 223.906,39.011 224.729,38.012C223.902,36.271 223.489,34.113 223.489,31.537C223.489,28.247 224.087,24.584 225.284,20.55C226.976,14.846 229.865,8.399 233.95,1.208C234.259,0.663 234.572,0.121 234.887,-0.418C240.287,-9.647 246.555,-18.042 253.691,-25.603C253.658,-25.95 253.641,-26.302 253.641,-26.659C253.641,-28.628 254.222,-29.613 255.385,-29.613C255.611,-29.613 256.247,-29.501 257.294,-29.278C257.983,-29.955 258.68,-30.625 259.384,-31.287C269.367,-40.674 278.084,-45.368 285.537,-45.368C290.802,-45.368 293.434,-42.611 293.434,-37.097C293.434,-33.034 292.187,-28.542 289.695,-23.621C291.465,-23.546 293.258,-23.508 295.075,-23.508C304.51,-23.508 313.57,-24.493 322.253,-26.462C331.483,-41.823 340.645,-49.504 349.739,-49.504C352.233,-49.504 353.901,-48.753 354.74,-47.25C356.664,-46.959 358.125,-45.938 359.123,-44.187C360.212,-42.274 360.806,-39.871 360.903,-36.979C362.06,-38.337 363.398,-39.427 364.917,-40.248C369.293,-42.348 373.259,-43.399 376.814,-43.399C380.369,-43.399 383.6,-42.939 386.506,-42.02C389.412,-41.101 392.266,-39.558 395.07,-37.392C397.873,-35.226 400.129,-32.042 401.838,-27.84C403.548,-23.639 404.402,-18.65 404.402,-12.873C404.402,-10.772 404.231,-8.212 403.89,-5.192C420.162,-30.007 433.187,-42.414 442.964,-42.414C446.588,-42.414 448.4,-39.788 448.4,-34.536C448.4,-28.366 446.229,-20.061 441.888,-9.623C440.505,-6.299 439.047,-3.091 437.516,0C436.046,2.966 434.507,5.825 432.9,8.577C430.923,11.961 428.842,15.184 426.658,18.244C425.029,20.525 423.481,22.487 422.013,24.129C418.244,28.346 415.006,30.454 412.299,30.454C409.975,30.454 407.924,29.535 406.146,27.697C406.077,27.565 405.941,27.5 405.736,27.5C405.53,27.5 405.427,29.502 405.428,33.507C405.428,33.784 405.428,34.062 405.429,34.34C405.435,38.066 405.486,41.793 405.582,45.52C405.684,49.524 405.975,54.907 406.454,61.669C406.932,68.431 407.616,74.208 408.505,79C409.394,83.792 410.727,88.026 412.504,91.703C414.282,95.379 416.316,97.217 418.607,97.217C420.897,97.217 424.47,95.116 429.324,90.915C430.008,90.258 430.606,89.93 431.119,89.93C431.632,89.93 431.888,90.193 431.888,90.718C431.888,91.899 431.375,92.95 430.35,93.869C424.47,99.777 419.889,102.731 416.607,102.731C413.325,102.731 410.607,100.466 408.453,95.937C406.3,91.407 404.813,85.302 403.992,77.621C403.172,69.941 402.625,62.522 402.351,55.367C402.078,48.211 401.941,40.564 401.941,32.423C401.941,31.655 401.94,30.912 401.938,30.193C401.921,23.292 401.819,18.652 401.633,16.274C401.633,15.093 401.086,14.436 399.992,14.305C396.785,26.745 392.255,40.427 386.4,55.351C386.014,56.335 385.622,57.326 385.224,58.321C378.797,74.405 372.729,87.764 367.02,98.398C361.311,109.033 357.482,114.351 355.533,114.351C353.585,114.351 352.61,112.775 352.61,109.624C352.61,102.272 357.345,87.468 366.815,65.214C366.819,65.202 366.824,65.191 366.829,65.18C371.712,53.707 376.899,42.644 382.391,31.991C383.71,29.433 385.046,26.899 386.4,24.388C390.338,17.085 394.424,9.982 398.659,3.079C398.848,2.035 399.021,1.008 399.179,0C399.995,-5.201 400.403,-9.919 400.403,-14.153C400.403,-19.208 399.668,-23.541 398.198,-27.151C396.728,-30.762 394.762,-33.42 392.3,-35.127C387.925,-38.147 383.309,-39.657 378.455,-39.657C367.242,-39.657 361.567,-36.046 361.43,-28.825C361.43,-26.068 362.285,-23.672 363.994,-21.637C365.704,-19.602 367.806,-17.797 370.302,-16.221C372.797,-14.645 375.293,-12.906 377.788,-11.002C380.284,-9.098 382.404,-6.374 384.147,-2.829C385.242,-0.603 385.993,1.726 386.4,4.158C386.642,5.6 386.762,7.079 386.762,8.594C386.762,11.075 386.642,12.8 386.4,13.769C386.245,14.389 386.041,14.699 385.788,14.699C385.138,14.699 384.814,13.911 384.814,12.335C384.814,7.478 383.378,3.276 380.506,-0.269C377.635,-3.814 374.489,-6.538 371.071,-8.442C368.848,-9.68 366.74,-11.182 364.748,-12.947C364.861,-11.447 364.917,-9.847 364.917,-8.146C364.917,-5.265 364.773,-2.248 364.484,0.905C363.873,7.585 362.613,14.876 360.706,22.777C359.534,27.633 358.117,32.719 356.456,38.036C355.544,40.957 354.601,43.801 353.629,46.569C350.885,54.377 347.903,61.577 344.682,68.168C341.988,73.682 339.126,78.769 336.098,83.431C338.97,83.168 341.961,81.855 345.072,79.492C348.183,77.129 350.696,74.831 352.61,72.599C354.525,70.367 355.602,69.251 355.841,69.251C356.08,69.251 356.2,69.776 356.2,70.827C356.2,73.453 353.602,76.768 348.405,80.772C343.209,84.777 338.594,86.779 334.56,86.779L333.842,86.779C326.048,97.808 318.766,103.322 311.997,103.322C307.484,103.322 304.134,100.926 301.946,96.134C299.758,91.341 298.664,84.153 298.664,74.569C298.664,64.984 300.322,53.036 303.638,38.725C304.938,33.116 306.375,27.632 307.948,22.275C310.204,14.591 312.741,7.166 315.559,0C315.789,-0.584 316.02,-1.166 316.253,-1.746C319.383,-9.53 322.828,-16.595 326.59,-22.942C325.679,-22.668 324.746,-22.397 323.791,-22.129C320.775,-16.337 317.484,-8.961 313.917,-0C311.301,6.573 308.537,13.998 305.626,22.275C303.329,28.804 300.94,35.863 298.459,43.452C297.738,45.632 297.018,47.796 296.3,49.946C294.339,55.812 292.388,61.567 290.446,67.21C289.457,70.086 288.47,72.933 287.486,75.75C279.486,98.595 272.956,110.018 267.897,110.018C266.051,110.018 265.128,108.475 265.128,105.39C265.128,102.304 265.811,98.727 267.179,94.657C268.478,90.718 269.504,88.748 270.256,88.748L270.358,88.748C271.247,88.748 271.691,89.733 271.691,91.703L271.281,95.444C271.281,96.101 271.418,96.429 271.691,96.429C274.695,96.429 279.436,86.689 285.914,67.21C287.253,63.186 288.667,58.747 290.152,53.89C291.95,48.01 293.997,41.709 296.3,34.992C297.7,30.907 299.195,26.668 300.783,22.275C301.655,19.862 302.556,17.402 303.485,14.896C305.454,9.581 307.401,4.616 309.325,-0C312.678,-8.042 315.962,-15.025 319.176,-20.948C307.348,-18.059 296.066,-16.615 285.332,-16.615L285.192,-16.628C284.401,-15.832 283.696,-15.433 283.075,-15.433C282.668,-15.433 282.463,-15.918 282.46,-16.888L278.32,-17.282C276.488,-12.768 274.278,-7.007 271.689,-0C269.329,6.389 266.655,13.814 263.666,22.275C262.398,25.865 261.073,29.642 259.692,33.605C269.333,30.191 275.298,28.485 277.589,28.485C278.641,28.485 279.711,28.665 280.8,29.025C282.081,29.449 283.386,30.122 284.716,31.045C287.178,32.752 288.409,34.655 288.409,36.756C288.409,37.544 288.221,38.2 287.844,38.725C287.468,39.251 287.092,39.513 286.716,39.513C286.34,39.513 284.58,38.594 281.435,36.756C281.222,36.632 281.011,36.512 280.8,36.397C277.882,34.798 275.068,33.999 272.358,33.999C269.452,33.999 264.786,35.115 258.359,37.347C257.364,40.144 256.397,42.851 255.456,45.47C254.521,48.07 253.613,50.583 252.731,53.007C243.332,78.856 236.935,94.709 233.54,100.565C231.488,104.11 229.813,105.882 228.514,105.882C227.352,105.882 226.771,104.307 226.771,101.156C226.771,99.449 227.01,97.348 227.489,94.854C227.967,92.359 228.617,91.112 229.437,91.112C229.711,91.112 229.882,91.67 229.95,92.786C230.018,93.902 230.121,94.46 230.258,94.46C231.625,94.46 234.172,89.766 237.898,80.378C239.764,75.679 241.977,69.885 244.536,62.996C247.089,56.126 249.987,48.167 253.231,39.119C246.08,41.746 240.485,43.178 236.445,43.416C236.042,43.44 235.655,43.452 235.283,43.452C231.747,43.452 229.007,42.649 227.061,41.043C225.558,42.511 223.853,44.29 221.947,46.377C221.643,46.711 221.336,47.049 221.028,47.391C214.872,54.21 209.985,58.748 206.362,60.98C206.2,61.389 206.038,61.798 205.876,62.205C201.127,74.116 196.554,83.817 192.157,91.309C187.61,99.055 183.901,102.928 181.03,102.928C177.064,102.928 175.081,97.479 175.081,86.582C175.081,83.562 175.252,79.197 175.594,73.485C175.742,71.021 175.857,68.929 175.941,67.21C176.052,64.946 176.107,63.329 176.107,62.358C176.107,57.916 175.805,54.438 175.2,51.923ZM190.7,51.792C192.859,55.948 196.268,58.026 200.926,58.026C201.208,58.026 201.493,58.009 201.782,57.974C202.471,57.892 203.177,57.713 203.9,57.435C206.483,50.709 208.907,43.921 211.174,37.072C212.67,32.549 214.098,28 215.457,23.424C216.781,18.966 218.039,14.482 219.233,9.972C220.299,5.944 221.232,2.162 222.032,-1.372C224.439,-12.005 225.643,-20.401 225.643,-26.56C225.643,-34.766 223.865,-38.869 220.31,-38.869C216.002,-38.869 211.267,-34.602 206.105,-26.068C200.943,-17.534 196.619,-7.326 193.132,4.556C192.195,7.746 191.385,10.844 190.7,13.85C188.834,22.039 187.901,29.543 187.901,36.362C187.901,43.057 188.834,48.2 190.7,51.792ZM230.327,20.99C229.802,23.356 229.54,25.559 229.54,27.598C229.54,29.158 229.717,30.545 230.071,31.758C230.485,31.307 230.838,30.937 231.13,30.651C232.6,29.207 233.711,28.485 234.463,28.485C235.215,28.485 235.813,28.846 236.257,29.568C236.702,30.29 236.924,31.11 236.924,32.029C236.924,33.868 235.813,35.181 233.591,35.968C233.423,36.028 233.244,36.104 233.054,36.198C234.747,37.441 237.051,38.085 239.966,38.132C240.08,38.133 240.194,38.134 240.309,38.135C243.043,38.14 247.829,37.084 254.667,34.984C255.321,33.189 255.966,31.419 256.604,29.674C257.545,27.099 258.449,24.633 259.316,22.275C262.626,13.271 265.398,5.846 267.63,0C268.742,-2.909 269.719,-5.428 270.563,-7.556C272.11,-11.403 273.532,-14.756 274.83,-17.614L262.564,-18.781C262.427,-18.781 262.119,-18.387 261.641,-17.6C261.162,-16.812 260.752,-16.418 260.41,-16.418C260.068,-16.418 259.829,-16.484 259.692,-16.615C257.46,-18.141 255.845,-19.847 254.848,-21.735C248.899,-15.001 243.573,-7.517 238.873,0.716C238.838,0.777 238.803,0.838 238.768,0.899C234.412,8.556 231.599,15.253 230.327,20.99ZM419.693,21.373C421.174,19.528 422.76,17.205 424.453,14.403C429.41,6.197 433.7,-2.796 437.324,-12.578C440.947,-22.359 442.759,-29.482 442.759,-33.946C442.759,-36.309 442.144,-37.491 440.913,-37.491C432.418,-37.491 419.802,-24.453 403.065,1.621C402.964,1.779 402.863,1.936 402.761,2.094C402.214,5.114 401.599,8.003 400.915,10.76L404.197,10.76C404.539,10.76 404.744,11.351 404.813,12.532C404.881,13.714 404.949,15.158 405.018,16.865C405.086,18.572 405.325,19.983 405.736,21.099C406.146,22.215 406.949,23.43 408.146,24.743C409.342,26.056 410.727,26.712 412.299,26.712C414.371,26.712 416.835,24.932 419.693,21.373ZM360.32,-0.487C360.513,-3.08 360.61,-5.567 360.61,-7.949C360.61,-12.467 360.205,-16.148 359.396,-18.992C358.728,-20.097 358.222,-21.228 357.878,-22.384C356.648,-19.794 354.841,-16.919 352.456,-13.759C350.029,-10.543 348.063,-7.654 346.559,-5.094C345.735,-3.691 345.136,-2.317 344.764,-0.973C344.457,0.135 344.303,1.223 344.303,2.291L344.406,3.67C344.406,5.246 344.166,6.033 343.688,6.033C342.799,6.033 342.354,4.228 342.354,0.617C342.354,0.258 342.361,-0.098 342.374,-0.452C342.494,-3.65 343.154,-6.609 344.354,-9.328C345.688,-12.348 347.619,-15.4 350.149,-18.486C352.679,-21.571 354.354,-23.836 355.174,-25.28C354.08,-25.805 353.191,-26.068 352.508,-26.068C346.628,-26.068 340.987,-21.834 335.586,-13.365C330.184,-4.897 325.945,5.278 322.868,17.16C322.72,17.732 322.576,18.3 322.435,18.867C321.857,21.194 321.339,23.483 320.881,25.736C319.129,34.349 318.253,42.421 318.253,49.951C318.253,70.958 323.347,82.118 333.534,83.431C336.531,78.763 339.369,73.478 342.05,67.576C344.903,61.293 347.578,54.311 350.074,46.63C350.905,44.073 351.716,41.438 352.508,38.725C354.305,32.564 355.804,26.73 357.003,21.223C358.727,13.311 359.832,6.074 360.32,-0.487ZM312.058,22.275C310.65,27.411 309.365,32.664 308.202,38.036C305.262,51.625 303.792,62.884 303.792,71.811C303.792,89.536 307.587,98.398 315.176,98.398C320.236,98.398 325.637,94.46 331.381,86.582C325.227,85.663 320.646,82.118 317.638,75.947C314.629,69.776 313.125,62.194 313.125,53.201C313.125,44.207 314.27,34.885 316.561,25.235C316.797,24.24 317.04,23.253 317.291,22.275C317.989,19.547 318.742,16.885 319.55,14.288C321.263,8.782 323.224,3.569 325.432,-1.352C329.056,-9.427 333.415,-16.155 338.508,-21.538C343.602,-26.921 348.713,-29.613 353.841,-29.613C354.867,-29.613 355.858,-29.416 356.815,-29.022C357.704,-31.517 358.148,-34.044 358.148,-36.604C358.148,-39.165 357.601,-41.036 356.507,-42.217C356.132,-42.623 355.736,-42.959 355.319,-43.226C354.548,-35.824 346.321,-29.491 330.638,-24.227C326.459,-17.287 322.706,-9.366 319.381,-0.466C319.323,-0.311 319.265,-0.155 319.208,0C316.549,7.161 314.165,14.586 312.058,22.275ZM386.4,47.095C391.005,34.204 394.544,22.289 397.018,11.351C393.321,17.462 389.781,23.643 386.4,29.893C385.004,32.473 383.636,35.065 382.294,37.668C378.008,45.984 373.998,54.42 370.262,62.977C369.722,64.213 369.189,65.451 368.661,66.691C360.559,85.729 356.507,99.186 356.507,107.064C356.507,107.983 356.678,108.442 357.02,108.442C358.593,108.442 361.943,103.388 367.071,93.278C372.199,83.168 377.737,70.236 383.686,54.481C384.628,51.984 385.533,49.522 386.4,47.095ZM135.596,111.2C138.058,111.2 141.237,106.506 145.134,97.118C149.031,87.731 154.262,73.453 160.826,54.284C154.809,61.111 148.792,70.597 142.775,82.742C136.758,94.886 133.75,103.388 133.75,108.246C133.75,110.215 134.365,111.2 135.596,111.2ZM190.7,25.303L190.7,45.02C190.156,42.603 189.901,39.709 189.901,36.362C189.901,32.864 190.169,29.179 190.7,25.303ZM199.234,54.084C198.971,53.605 198.718,53.116 198.475,52.615C195.958,47.431 194.7,41.286 194.7,34.181L194.7,33.029C194.7,25.86 195.958,19.699 198.475,14.546C200.992,9.393 204.575,5.425 209.225,2.64C212.363,0.762 215.883,-0.483 219.787,-1.094C219.098,1.841 218.318,4.949 217.45,8.232C213.339,23.768 208.443,38.996 202.764,53.917C202.136,54.095 201.523,54.185 200.926,54.185C200.34,54.185 199.776,54.152 199.234,54.084ZM404.866,3.761L417.825,19.154C415.73,21.596 413.898,22.872 412.299,22.872C411.104,22.872 410.047,22.406 409.138,21.408C408.279,20.465 407.664,19.686 407.37,18.884C407.147,18.28 407.049,17.496 407.012,16.57C406.941,14.813 406.871,13.325 406.8,12.108L406.527,9.988L405.996,8.406L405.626,7.789L405.174,7.301L404.68,7.009L404.197,6.919L403.963,6.919C404.133,6.088 404.299,5.245 404.459,4.394L404.866,3.761ZM286.241,-23.818C286.47,-24.281 286.697,-24.768 286.921,-25.28C288.186,-28.169 288.819,-30.86 288.819,-33.355C288.819,-38.081 286.255,-40.445 281.127,-40.445C276.072,-40.445 269.424,-36.427 261.181,-28.39C263.171,-27.918 265.666,-27.308 268.666,-26.56C271.795,-25.781 275.017,-25.151 278.332,-24.67C280.326,-28.228 281.873,-30.007 282.973,-30.007C283.315,-30.007 283.486,-29.81 283.486,-29.416L282.665,-27.053C282.265,-26.3 281.814,-25.376 281.31,-24.281C282.932,-24.092 284.576,-23.938 286.241,-23.818ZM347.003,-45.759C340.524,-45.593 333.812,-39.554 326.868,-27.644C328.017,-27.972 329.13,-28.317 330.207,-28.678C331.456,-30.538 332.736,-32.327 334.047,-34.044C338.483,-39.852 342.802,-43.757 347.003,-45.759ZM334.601,-30.333C336.523,-31.143 338.304,-32.019 339.944,-32.961C343.602,-35.062 346.183,-37.031 347.687,-38.869C349.173,-40.684 349.925,-42.275 349.943,-43.642C345.245,-42.474 340.357,-38.355 335.278,-31.287C335.051,-30.972 334.826,-30.654 334.601,-30.333ZM339.716,66.84C338.031,66.229 336.434,65.472 334.925,64.569C330.275,61.785 326.692,57.8 324.175,52.615C322.41,48.98 321.264,44.873 320.737,40.293C321.391,33.558 322.704,26.42 324.659,18.87C325.546,15.444 326.534,12.166 327.623,9.037C329.662,6.466 332.096,4.334 334.925,2.64C336.623,1.623 338.434,0.792 340.357,0.146L340.354,0.617C340.354,7.4 342.018,9.874 343.688,9.874L344.198,9.782L344.734,9.469L345.238,8.916L345.652,8.184L346.001,7.215L346.213,6.263C346.328,5.587 346.406,4.726 346.406,3.67C346.406,3.488 346.399,3.307 346.385,3.127L346.307,2.076C346.355,0.93 346.76,-0.154 347.391,-1.339C348.687,-1.47 350.024,-1.536 351.4,-1.536C353.839,-1.536 356.151,-1.332 358.336,-0.923C357.848,5.617 356.708,12.853 354.932,20.795C353.826,20.63 352.649,20.547 351.4,20.547C346.867,20.547 343.267,21.651 340.6,23.859C337.933,26.068 336.6,29.124 336.6,33.029L336.6,34.181C336.6,38.085 337.933,41.142 340.6,43.35C342.514,44.935 344.909,45.951 347.784,46.399C345.275,53.92 342.587,60.734 339.716,66.84ZM241.109,2.019C241.478,2.218 241.842,2.425 242.2,2.64C246.833,5.425 250.408,9.393 252.925,14.546C254.387,17.539 255.424,20.871 256.037,24.544C255.225,26.759 254.384,29.06 253.515,31.446C247.424,33.286 243.087,34.247 240.5,34.292L240.5,34.181L240.5,33.029C240.5,29.124 239.175,26.068 236.525,23.859C235.337,22.869 233.956,22.101 232.382,21.555C232.689,20.338 233.076,19.068 233.537,17.74C235.02,13.468 237.254,8.749 240.22,3.553C240.514,3.039 240.81,2.527 241.109,2.019ZM257.55,20.419L257.55,0L265.153,0C263.045,5.56 260.51,12.366 257.55,20.419ZM319.55,5.776L319.55,7.122C317.861,11.942 316.368,16.992 315.071,22.275L314.324,22.275C315.913,16.628 317.655,11.129 319.55,5.776ZM381.18,45.369C380.562,47.963 379.711,50.379 378.625,52.615C377.568,54.793 376.324,56.759 374.893,58.514C376.914,54.099 379.009,49.718 381.18,45.369ZM386.4,40.214L386.4,35.245C387.693,32.815 389.011,30.396 390.352,27.987C389.154,31.953 387.836,36.029 386.4,40.214ZM78.62,0C79.487,-1.265 80.429,-2.569 81.445,-3.912C88.351,-13.037 96.829,-21.145 106.88,-28.234C90.197,-28.497 76.078,-29.876 64.523,-32.37C63.908,-32.764 63.6,-33.552 63.6,-34.733C63.6,-36.44 64.352,-37.294 65.856,-37.294C66.267,-37.294 68.967,-36.965 73.958,-36.309C88.043,-34.208 97.615,-33.158 102.675,-33.158C107.734,-33.158 111.768,-33.289 114.777,-33.552C126.742,-40.773 136.895,-44.384 145.237,-44.384C148.245,-44.384 149.749,-43.268 149.749,-41.036C149.749,-33.027 137.408,-28.76 112.726,-28.234C103.495,-22.064 95.393,-14.744 88.419,-6.275C86.582,-4.045 84.987,-1.953 83.634,0C79.85,5.461 77.958,9.835 77.958,13.123C77.958,16.012 79.753,17.456 83.343,17.456C86.932,17.456 92.692,16.373 100.624,14.206C108.555,12.04 113.683,10.957 116.007,10.957C119.631,10.957 121.443,12.926 121.443,16.865C121.443,23.167 115.313,31.459 103.085,41.877C100.352,44.205 97.614,46.61 94.864,49.063C92.518,51.155 90.164,53.29 87.804,55.465C84.595,58.423 81.693,61.626 79.1,65.072C78.571,65.775 78.056,66.487 77.553,67.21C76.58,68.607 75.656,70.043 74.779,71.516C71.224,77.49 69.446,83.497 69.446,89.536C69.446,94.525 72.352,97.02 78.163,97.02C81.377,97.02 86.248,96.068 92.778,94.164C99.307,92.261 104.931,91.309 109.649,91.309C118.059,91.309 122.264,95.773 122.264,104.701C122.264,105.751 121.956,106.276 121.341,106.276C120.999,106.276 120.247,105.685 119.084,104.504C115.46,100.959 111.495,99.186 107.187,99.186C104.931,99.449 99.701,100.466 91.496,102.239C83.291,104.011 78.095,104.898 75.907,104.898C67.702,104.898 63.6,100.696 63.6,92.293C63.6,86.385 65.395,80.214 68.984,73.781C70.25,71.513 71.611,69.323 73.067,67.21C74.923,64.518 76.934,61.952 79.1,59.511C80.057,58.433 81.043,57.38 82.061,56.352C84.531,53.854 86.997,51.424 89.459,49.063C92.108,46.522 94.753,44.061 97.393,41.68C102.487,37.084 106.828,32.949 110.418,29.272C114.008,25.596 115.802,22.773 115.802,20.804C115.802,19.754 115.187,19.228 113.956,19.228C111.8,19.782 109.724,20.297 107.731,20.776C95.061,23.814 85.684,25.333 79.599,25.333C79.43,25.333 79.264,25.331 79.1,25.327C73.758,25.187 71.087,22.76 71.087,18.047C71.087,13.344 73.598,7.328 78.62,0ZM162.149,43.302L144.2,43.302L144.2,67.21L128.7,67.21L128.7,0L144.2,0L144.2,21.987L169.489,21.987C167.494,27.726 165.047,34.831 162.149,43.302ZM175.2,6.088L175.2,0L177.512,-0C176.703,2.103 175.933,4.133 175.2,6.088ZM227.951,-1.476C229.432,-1.396 230.863,-1.235 232.243,-0.994C227.735,7.037 224.699,14.306 223.033,20.686C222.835,20.707 222.639,20.732 222.445,20.758C223.443,17.201 224.392,13.638 225.29,10.067C226.307,6.024 227.193,2.176 227.951,-1.476ZM440.246,-0L448.4,0L448.4,67.21L433.1,67.21L407.439,36.728C407.432,35.654 407.428,34.58 407.428,33.507L407.43,32.903C408.917,33.824 410.54,34.294 412.299,34.294C415.479,34.294 419.369,31.733 423.922,26.396L432.9,37.061L432.9,13.673C435.518,9.381 437.967,4.823 440.246,-0ZM401.014,67.21L386.4,67.21L386.4,61.684L386.811,60.659C392.218,47.127 396.572,34.576 399.879,23.012C399.921,25.546 399.941,28.683 399.941,32.423C399.941,40.663 400.08,48.405 400.357,55.648C400.501,59.43 400.72,63.284 401.014,67.21ZM363.639,66.645C361.846,67.334 359.948,67.854 357.944,68.204L357.772,67.485L357.423,66.65L356.689,65.725L355.841,65.411L355.387,65.501L354.846,65.825C354.395,66.176 353.466,67.136 352.069,68.741L351.4,68.746C349.966,68.746 348.574,68.675 347.226,68.532C350.445,61.699 353.422,54.253 356.159,46.191C358.553,45.672 360.575,44.725 362.225,43.35C364.875,41.142 366.2,38.085 366.2,34.181L366.2,33.029C366.2,29.298 364.991,26.342 362.572,24.16C364.502,16.106 365.783,8.655 366.427,1.817C366.927,2.076 367.418,2.351 367.9,2.64C372.533,5.425 376.108,9.393 378.625,14.546C380.422,18.226 381.578,22.419 382.091,27.127C376.133,38.541 370.524,50.427 365.266,62.784C364.707,64.096 364.165,65.383 363.639,66.645ZM296.3,57.035L296.3,67.21L292.842,67.21C293.991,63.857 295.144,60.466 296.3,57.035ZM283.538,67.21L280.8,67.21L280.8,40.4L280.852,40.43C284.334,42.465 286.3,43.354 286.716,43.354L287.356,43.243L287.964,42.926C288.315,42.68 288.669,42.322 289.021,41.831L289.566,40.902L290.02,39.69L290.314,38.254L290.409,36.756L290.321,35.273L290.073,33.893C289.888,33.135 289.62,32.38 289.251,31.652C288.511,30.191 287.246,28.716 285.396,27.433C283.833,26.349 282.301,25.584 280.8,25.133L280.8,22.275L266.084,22.275C269.106,13.746 271.792,6.321 274.144,0L306.775,-0C305.15,3.98 303.511,8.202 301.855,12.669C300.639,15.95 299.471,19.152 298.351,22.275L296.3,22.275L296.3,28.061C293.286,36.664 290.662,44.625 288.428,51.944C286.693,57.608 285.064,62.697 283.538,67.21ZM241.293,65.091C236.854,67.528 231.656,68.746 225.7,68.746C219.367,68.746 213.875,67.354 209.225,64.569C208.853,64.346 208.488,64.116 208.129,63.878C211.71,61.397 216.346,57.021 222.028,50.716C223.379,49.218 224.633,47.866 225.791,46.663C227.099,46.659 228.328,46.563 229.478,46.377C231.126,46.977 233.06,47.293 235.283,47.293C238.6,47.293 243.123,46.381 248.849,44.537C246.033,52.324 243.515,59.175 241.293,65.091ZM190.39,67.21L181.42,67.21L181.79,59.77C181.796,59.648 181.799,59.526 181.799,59.404C181.799,54.39 181.398,50.045 180.63,46.358C180.045,43.55 179.051,41.39 177.637,39.892C176.451,38.636 175.116,37.941 173.627,37.849C179.263,21.952 183.835,9.491 187.345,0.467L187.53,-0L188.751,-0C187.266,4.524 185.92,9.198 184.714,14.021C182.06,24.631 180.773,33.832 180.773,41.581C180.773,50.068 182.081,56.592 184.55,61.256C186.018,64.03 187.959,66.048 190.39,67.21ZM215.29,43.66C215.448,43.78 215.609,43.897 215.773,44.01C215.457,44.343 215.142,44.67 214.829,44.99L215.29,43.66ZM386.4,19.068L386.4,18.387L386.44,18.377L387.04,17.902L386.4,19.068ZM387.659,0L397.086,-0L396.943,0.84C393.872,5.866 390.88,10.997 387.965,16.233C388.393,14.97 388.762,12.461 388.762,8.594C388.762,5.624 388.401,2.754 387.659,0ZM87.076,0L111.05,0C115.883,0 119.433,1.872 121.7,5.617C123.967,9.361 125.1,15.042 125.1,22.659C125.1,27.78 124.608,32.325 123.625,36.293C122.642,40.262 121.117,43.382 119.05,45.654C116.983,47.927 114.317,49.063 111.05,49.063L99.65,49.063C101.068,47.822 102.484,46.596 103.897,45.386C111.474,38.964 116.764,33.25 119.795,28.34C122.368,24.173 123.443,20.177 123.443,16.865C123.443,11.187 121.231,7.116 116.007,7.116C113.64,7.116 108.418,8.198 100.342,10.404C92.54,12.535 86.874,13.615 83.343,13.615C82.132,13.615 81.161,13.453 80.435,13.064C80.283,12.982 80.101,12.828 79.979,12.717C80.078,11.729 80.523,10.67 81.131,9.348C82.376,6.64 84.363,3.537 87.076,0ZM69.847,67.21L63.6,67.21L63.6,0L75.415,0C73.569,2.971 72.151,5.722 71.154,8.235C69.716,11.857 69.087,15.176 69.087,18.047C69.087,21.305 69.814,23.948 71.337,25.903C72.915,27.929 75.653,29.174 79.599,29.174C81.101,29.174 82.802,29.083 84.702,28.9L106.467,28.9C103.561,31.756 100.253,34.857 96.543,38.204C92.714,41.657 88.876,45.277 85.028,49.063L79.1,49.063L79.1,55.079C75.65,58.826 72.566,62.871 69.847,67.21ZM108.711,26.663C108.837,26.089 108.9,25.426 108.9,24.676C108.9,24.57 108.899,24.467 108.896,24.365C109.69,24.172 110.496,23.974 111.315,23.77C110.753,24.482 110.13,25.215 109.477,25.884L108.711,26.663Z" style="fill:white;"/>
    </g>
</svg>
